Coordinates
version=1
nRows=14
nColumns=36
inDegrees=yes

Units are S.I. units (second, meters, Newtons, ...)
If the header above contains a line with 'inDegrees', this indicates whether rotational values are in degrees (yes) or radians (no).

endheader
time	pelvis_tilt	pelvis_list	pelvis_rotation	pelvis_tx	pelvis_ty	pelvis_tz	hip_flexion_r	hip_adduction_r	hip_rotation_r	knee_angle_r	knee_angle_r_beta	ankle_angle_r	subtalar_angle_r	mtp_angle_r	hip_flexion_l	hip_adduction_l	hip_rotation_l	knee_angle_l	knee_angle_l_beta	ankle_angle_l	subtalar_angle_l	mtp_angle_l	lumbar_extension	lumbar_bending	lumbar_rotation	arm_flex_r	arm_add_r	arm_rot_r	elbow_flex_r	pro_sup_r	arm_flex_l	arm_add_l	arm_rot_l	elbow_flex_l	pro_sup_l
      6.00000000	    -18.78509432	     -1.35779741	     -3.11218692	     -0.32110335	      1.08648506	     -0.60310013	     38.77955089	     -8.17596996	     -8.64037481	     24.12941629	      0.42113776	      8.65365317	      6.87933158	     -7.49999987	     40.32594183	    -13.40012719	     -7.82523416	     30.21659052	      0.52737899	     13.55277086	      1.40128194	     -7.49999987	    -22.70830466	      2.20916554	     11.36105657	     38.82916948	    -23.18173422	     22.27443919	     94.60159284	     81.55478557	     53.44852125	     -8.57239373	     28.44590224	     80.99861044	     94.05491620
      6.01000000	    -17.80113829	     -1.31491862	     -3.18685548	     -0.31609780	      1.09354145	     -0.60248577	     36.64940818	     -7.96955931	     -8.56195190	     22.52064773	      0.39305945	      7.73502833	      6.52762513	     -7.49999987	     38.04669808	    -13.26917118	     -8.32186249	     28.56456499	      0.49854571	     12.67472204	      1.36787023	     -7.49999987	    -22.61594782	      2.10579244	     10.95081336	     36.57567057	    -22.76520618	     22.25520200	     95.49624562	     82.04279346	     51.14407358	     -9.46388939	     27.87933367	     83.05003065	     93.69048974
      6.02000000	    -17.16707334	     -1.31830294	     -3.16537452	     -0.31026779	      1.09979815	     -0.60170726	     34.83304850	     -7.80664282	     -8.72874595	     20.90012643	      0.36477602	      7.14020997	      6.79855202	     -7.49999987	     36.20925372	    -13.12584500	     -8.71763957	     27.00176432	      0.47126969	     12.11290366	      1.62526550	     -7.49999987	    -21.79750038	      2.37918639	      9.62003936	     35.32977661	    -21.75148066	     23.88920337	     94.69464844	     83.48192190	     48.22850787	    -11.05977270	     27.01739990	     84.84500289	     89.46176135
      6.03000000	    -16.45399053	     -1.31051898	     -3.12660898	     -0.30376166	      1.10450708	     -0.59995498	     32.96276570	     -7.63312798	     -8.78119315	     19.37202974	      0.33810570	      6.61789421	      6.84926121	     -7.49999987	     34.30789636	    -12.96503251	     -9.10089170	     25.48729669	      0.44483724	     11.56455181	      1.84521381	     -7.49999987	    -20.99211752	      2.32159214	      9.38860716	     32.98674037	    -21.50911697	     23.89092525	     94.82055728	     83.83766264	     46.20160508	    -11.50354249	     27.08894480	     85.31197287	     89.71129675
      6.04000000	    -15.79187761	     -1.29152596	     -3.11814572	     -0.29754728	      1.10732119	     -0.59840007	     31.21959638	     -7.45743623	     -8.78369453	     17.98912550	      0.31396947	      6.14337329	      6.83020825	     -7.49999987	     32.51235860	    -12.82338892	     -9.52874469	     24.11475841	      0.42088193	     11.12534590	      2.06445568	     -7.49999987	    -20.06266311	      2.24381382	      9.08416843	     30.73568708	    -21.19715930	     24.00843856	     94.93249640	     84.00898677	     44.10483748	    -12.05721933	     27.08482985	     85.96656262	     89.70865263
      6.05000000	    -15.50303418	     -1.35848693	     -3.05920434	     -0.29060256	      1.10871169	     -0.59784903	     29.86775108	     -7.25164632	     -8.98933442	     16.69586768	      0.29139786	      5.94198962	      7.24932697	     -7.49999987	     31.20717477	    -12.74609764	     -9.80323543	     22.92413549	      0.40010164	     10.94257779	      2.37632006	     -7.49999987	    -18.41083294	      2.33882827	      8.79920622	     28.42154332	    -20.96152145	     24.34190824	     94.70895872	     84.11270722	     41.88243924	    -12.40658212	     27.20032567	     85.93657666	     90.08339243
      6.06000000	    -14.43314111	     -1.30078344	     -3.06333992	     -0.28111624	      1.11239947	     -0.59684082	     27.57547794	     -7.07254128	     -8.67316847	     15.16620407	      0.26470020	      5.20400547	      6.71227166	     -7.49999987	     28.76824752	    -12.51707101	    -10.30768192	     21.30316220	      0.37181032	     10.23078668	      2.54420934	     -7.49999987	    -18.00856946	      2.15197979	      8.37571647	     26.30838945	    -20.51677241	     24.11316592	     95.00270096	     84.57231098	     39.63145538	    -13.19308878	     26.97988469	     87.09075041	     90.26488279
      6.07000000	    -13.60455366	     -1.33478189	     -3.04160993	     -0.27050742	      1.11746632	     -0.59545066	     25.40898066	     -6.82413975	     -8.53660892	     13.50306908	      0.23567301	      4.57208589	      6.54257507	     -7.49999987	     26.55438834	    -12.38574426	    -10.83383023	     19.67428531	      0.34338106	      9.75070319	      3.05544067	     -7.49999987	    -17.10891826	      2.18239873	      7.83445513	     24.15903871	    -19.97981007	     24.26475426	     94.75061052	     84.79967122	     36.89537042	    -13.91899144	     26.47515552	     87.78327601	     89.18179209
      6.08000000	    -12.93505166	     -1.36344984	     -2.93061520	     -0.26213511	      1.12334811	     -0.59472421	     23.41480074	     -6.63538688	     -8.54972605	     11.85634554	      0.20693227	      3.88154900	      6.46811486	     -7.49999987	     24.55087756	    -12.19219367	    -11.18449663	     18.02705613	      0.31463148	      8.98262356	      3.34643478	     -7.49999987	    -16.01247842	      2.22122311	      7.36280084	     21.95358757	    -19.57349825	     24.54284963	     94.27556095	     84.38905924	     34.41673359	    -14.45283699	     26.28061220	     87.77322744	     88.57873857
      6.09000000	    -12.05804516	     -1.37433555	     -2.85505736	     -0.25556540	      1.12797934	     -0.59488607	     21.29184324	     -6.46449771	     -8.33875090	     10.33469944	      0.18037453	      3.24751808	      6.16075407	     -7.49999987	     22.36530273	    -11.99245039	    -11.61962569	     16.45538135	      0.28720058	      8.42663413	      3.61298533	     -7.49999987	    -15.31676940	      2.19056977	      6.87589804	     19.99901160	    -19.15621923	     24.82513726	     93.92746976	     84.40188505	     32.05496253	    -15.02486293	     25.98276727	     88.07256325	     88.11922116
      6.10000000	    -11.38804308	     -1.36453527	     -2.80662675	     -0.24819242	      1.12998577	     -0.59485414	     19.46030855	     -6.30688625	     -7.98306886	      8.92757222	      0.15581553	      2.54862326	      5.59754947	     -7.49999987	     20.46995012	    -11.79855043	    -12.08824695	     15.02173986	      0.26217882	      7.90216598	      3.98904433	     -7.49999987	    -14.39523193	      2.31884557	      5.42813741	     19.00401512	    -18.40273569	     26.53229937	     93.11865841	     85.76586332	     28.71930051	    -16.16155571	     24.45316724	     89.50127042	     86.20323815
      6.11000000	    -10.60521417	     -1.32289303	     -2.70828522	     -0.23948133	      1.13216769	     -0.59394626	     17.51234230	     -6.24005034	     -7.82494792	      7.58027080	      0.13230068	      2.12565885	      5.48054156	     -7.49999987	     18.46163571	    -11.52403016	    -12.44329178	     13.57831586	      0.23698632	      7.30250871	      4.17072767	     -7.49999987	    -13.53158562	      2.20502424	      5.11754791	     16.90133676	    -18.16467879	     26.78270452	     93.11001169	     85.83482405	     26.48843958	    -16.56180130	     24.47619849	     89.69498586	     85.99185795
      6.12000000	     -9.91280986	     -1.31430411	     -2.62529006	     -0.23071009	      1.13533578	     -0.59296909	     15.68297337	     -6.12684252	     -7.54472076	      6.27817355	      0.10957480	      1.59436272	      5.03971430	     -7.49999987	     16.56323420	    -11.30574259	    -12.83054899	     12.16916377	      0.21239197	      6.74241313	      4.44349028	     -7.49999987	    -12.66346757	      2.13841551	      4.72625575	     14.82888762	    -17.87065929	     27.06655842	     93.09063212	     85.61422729	     23.93878478	    -16.97748981	     24.16540252	     90.07844965	     85.40390805
      6.13000000	     -9.28558034	     -1.29240507	     -2.55185518	     -0.22289312	      1.13841938	     -0.59353511	     13.96635352	     -6.04571561	     -7.19214971	      5.03649366	      0.08790340	      0.98005898	      4.38267104	     -7.49999987	     14.77658521	    -11.07521287	    -13.22244537	     10.82459805	      0.18892488	      6.17773967	      4.71245697	     -7.49999987	    -11.83441415	      2.16477682	      3.62992469	     13.60358630	    -17.35872798	     28.10474395	     92.65111543	     86.71907866	     20.74992534	    -17.50539507	     22.70865750	     91.05105195	     85.37242479
